<?xml version="1.0" encoding="utf-8"?>
<!-- Generator: Adobe Illustrator 24.0.0, SVG Export Plug-In . SVG Version: 6.00 Build 0)  -->
<svg version="1.1" xmlns="http://www.w3.org/2000/svg" xmlns:xlink="http://www.w3.org/1999/xlink" x="0px" y="0px"
	 viewBox="0 0 255.1 255.1" style="enable-background:new 0 0 255.1 255.1;" xml:space="preserve">
<style type="text/css">
	.st0{display:none;}
	.st1{display:inline;fill:#FFFFFF;}
	.st2{display:inline;fill:#F05133;}
	.st3{display:inline;fill:#9E9E9E;}
	.st4{display:inline;fill:#FF7714;}
	.st5{display:inline;fill:#FEC007;}
	.st6{display:inline;fill:#259959;}
	.st7{fill:#606060;}
	.st8{fill:#FFFFFF;}
	.st9{display:inline;fill:#0078D7;}
	.st10{display:inline;}
	.st11{fill:#56A1D5;}
	.st12{fill:#67ABD9;}
	.st13{fill:#76B3DD;}
	.st14{display:inline;fill:#390091;}
	.st15{display:inline;fill:#00979D;}
</style>
<g id="Layer_10">
</g>
<g id="Layer_1" class="st0">
	
		<rect x="48.5" y="52.6" transform="matrix(0.7071 0.7071 -0.7071 0.7071 117.8729 -49.5993)" class="st1" width="140.6" height="129.8"/>
	<path class="st2" d="M236.1,118.5l-98.6-98.6c-5.7-5.7-14.9-5.7-20.6,0L96.5,40.4l26,26c6-2,13-0.7,17.8,4.1
		c4.8,4.8,6.2,11.8,4.1,17.9l25,25c6.1-2.1,13-0.7,17.9,4.1c6.8,6.8,6.8,17.7,0,24.5c-6.8,6.8-17.7,6.8-24.5,0
		c-5.1-5.1-6.3-12.6-3.8-18.8l-23.3-23.3v61.4c1.6,0.8,3.2,1.9,4.6,3.3c6.8,6.8,6.8,17.7,0,24.5c-6.8,6.8-17.7,6.8-24.5,0
		c-6.8-6.8-6.8-17.7,0-24.5c1.7-1.7,3.6-2.9,5.7-3.8v-62c-2.1-0.8-4-2.1-5.7-3.8c-5.1-5.1-6.3-12.6-3.7-18.9L86.5,50.4L18.9,118
		c-5.7,5.7-5.7,14.9,0,20.6l98.6,98.6c5.7,5.7,14.9,5.7,20.6,0l98.1-98.1C241.8,133.4,241.8,124.1,236.1,118.5z"/>
	<path class="st3" d="M94.9,79.9"/>
</g>
<g id="Layer_2" class="st0">
	<path class="st4" d="M233.9,241.4H20.4c-3.4,0-6.1-2.8-6.1-6.1V21.8c0-3.4,2.8-6.1,6.1-6.1h213.5c3.4,0,6.1,2.8,6.1,6.1v213.5
		C240,238.7,237.3,241.4,233.9,241.4z"/>
	<path class="st1" d="M162.2,211.9c-5,0-6.2-2.3-6.2-4.7l0.4-27.2c0-9.3-3.1-15.5-7-18.6c22.1-2.3,45.4-10.9,45.4-48.9
		c0-10.9-3.9-19.8-10.1-26.8c1.2-2.3,4.3-12.4-1.2-26c0,0-8.1-2.7-27.2,10.1c-16.3-4.7-33.4-4.7-49.7,0
		c-19-12.8-27.2-10.1-27.2-10.1c-5.4,13.6-2.3,23.7-1.2,26c-6.2,7-10.1,15.9-10.1,26.8c0,38,22.9,46.6,45,48.9
		c-2.7,2.7-5.4,7-6.2,13.6c-5.8,2.3-20.2,6.6-28.7-8.5c0,0-5.4-9.3-15.5-10.1c0,0-9.7,0-0.4,6.2c0,0,6.2,2.7,10.9,14.4
		c0,0,5.8,19.4,33.4,13.2l0.4,17.1c0,2.3-1.2,4.7-6.2,4.7c-5.4,0-4.7,6.6-4.7,6.6h70.6C166.8,218.5,167.6,211.9,162.2,211.9z"/>
</g>
<g id="Layer_3" class="st0">
	<path class="st5" d="M233.9,241.4H20.4c-3.4,0-6.1-2.8-6.1-6.1V21.8c0-3.4,2.8-6.1,6.1-6.1h213.5c3.4,0,6.1,2.8,6.1,6.1v213.5
		C240,238.7,237.3,241.4,233.9,241.4z"/>
	<path class="st1" d="M126.5,47.7C86.5,47.7,89,65,89,65l0,18h38.2v5.4H73.9c0,0-25.6-2.9-25.6,37.5c0,40.4,22.3,38.9,22.3,38.9H84
		v-18.7c0,0-0.7-22.3,22-22.3h37.9c0,0,21.3,0.3,21.3-20.6V68.6C165.1,68.6,168.3,47.7,126.5,47.7z M105.5,59.8
		c3.8,0,6.9,3.1,6.9,6.9c0,3.8-3.1,6.9-6.9,6.9c-3.8,0-6.9-3.1-6.9-6.9c0,0,0,0,0,0C98.6,62.8,101.7,59.8,105.5,59.8z"/>
	<path class="st1" d="M127.7,204.5c40,0,37.5-17.3,37.5-17.3l0-18H127v-5.4h53.3c0,0,25.6,2.9,25.6-37.5s-22.3-38.9-22.3-38.9h-13.3
		v18.7c0,0,0.7,22.3-22,22.3h-37.9c0,0-21.3-0.3-21.3,20.6v34.6C89.1,183.5,85.9,204.5,127.7,204.5z M148.7,192.4
		c-3.8,0-6.9-3.1-6.9-6.9c0,0,0,0,0,0c0-3.8,3.1-6.9,6.9-6.9s6.9,3.1,6.9,6.9C155.6,189.3,152.5,192.4,148.7,192.4z"/>
</g>
<g id="Layer_4" class="st0">
	<path class="st6" d="M234.3,241.4H20.8c-3.4,0-6.1-2.8-6.1-6.1V21.8c0-3.4,2.8-6.1,6.1-6.1h213.5c3.4,0,6.1,2.8,6.1,6.1v213.5
		C240.5,238.7,237.7,241.4,234.3,241.4z"/>
	<path class="st1" d="M191.2,156.5c-1.8-1.6-3.8-3.1-5.5-5c-4.9-5.4-9.6-11.1-14.6-16.5c-3.4-3.7-4.7-7.7-3.1-12.7
		c0.8-2.6,2.5-5.8-0.9-7.6c-0.5-0.3-3.6,3.3-4.7,5.5c-4.1,8.2-10,14.8-17.4,20.1c-4.3,3.1-9,5.8-13.2,9.1c-2.4,1.9-4.2,4.6-6.3,6.9
		c-0.7,0.9-1.3,2.3-2.2,2.5c-4.9,1.3-6.3,5.5-8.2,9.4c-5,10.1-9.8,20.2-15.1,30.1c-3.1,5.7-6.9,10.9-10.6,16.3
		c-0.9,1.3-2.5,2.1-4.7,2.6c0.7-1.5,1.1-3.1,2.1-4.4c12.3-16.7,20.4-35.8,29.8-54.1c1.4-2.7,4.3-4.7,6.6-6.9c0.9-0.9,2.4-1.1,3.3-2
		c8.8-8,17.6-16.1,26.1-24.7c-5.6,3.6-11.1,7.5-17,10.8c-3.8,2.2-7.9,3.8-12.1,5.1c-2.2,0.7-4.8-0.1-8.7-0.3
		c7.3-10.7,11.5-21.9,20.1-31.1c-3.8,0.3-7.6,0.6-11.3,0.8c-8.6,0.3-17.3,0.6-25.9,0.9c-4.3,0.2-7.8,1.8-11.2,4.8
		c-5.4,4.9-11.3,9.5-17.4,13.5c-4.5,3-9.7,1.5-14.7,0.4c14.7-0.4,23.8-10.1,33.4-19.3c2.2-2.1,6-3.4,9.2-3.7
		c14.1-1.3,28.4-1.9,42.5-3.2c2.3-0.2,4.6-2.2,6.4-3.8c5-4.5,9.8-9.3,14.5-14.1c0.8-0.8,1.2-2.5,1.1-3.7c-0.2-1.9-1-3.8-1.7-6.4
		c1.9,0.4,3.1,0.7,4.1,0.9c0.5-1.3,0.9-2.4,1.4-3.6c0.9,1.5,1.8,3.1,2.7,4.6c1.8-0.8,4.1-1.8,7.4-3.2c-0.6-11.1-1.3-22.8-2-34.5
		c0.3-0.1,0.7-0.2,1-0.3c0.5,1.9,1.3,3.7,1.4,5.6c0.7,10.3,1.2,20.7,1.9,32.2c8.3-8.3,16.8-14.6,28.1-16c-1.3,0.8-2.6,1.5-3.9,2.3
		c-6.3,3.8-12.6,7.5-18.8,11.4c-2.7,1.7-3.5,3.9-2,7c1.8,3.8,1.9,7-2.7,9.3c-2.7,1.4-2.5,4.2,0.5,5c4.5,1.2,9.2,1.6,13.9,1.9
		c2.2,0.1,4.5-1,6.8-1.3c1.3-0.1,2.6,0.5,4.5,0.9c-3.7,2.2-6.4,4.2-9.5,5.3c-1.8,0.6-4.2-0.2-6.2-0.6c-3.6-0.8-7.2-2.3-10.8-2.7
		c-4.3-0.5-6.3,1.5-6.2,5.8c0.2,8.1,0.5,16.2,1.5,24.2c0.3,2.5,2.8,4.8,4.6,7c4.3,5.1,8.8,9.9,13.1,14.9c0.8,0.9,1.3,2.1,1.9,3.2
		C192.1,155.7,191.7,156.1,191.2,156.5z"/>
</g>
<g id="Layer_5">
	<path class="st7" d="M234.3,241.4H20.7c-3.4,0-6.1-2.8-6.1-6.1V21.8c0-3.4,2.8-6.1,6.1-6.1h213.5c3.4,0,6.1,2.8,6.1,6.1v213.5
		C240.4,238.7,237.6,241.4,234.3,241.4z"/>
	<path class="st8" d="M130.1,161c-0.8-0.3-1.8-1-3-1.8c-1.2-0.8-2.6-1.5-3.2-2.2c-0.6-0.7-0.3-1.3,0.2-1.8c0.5-0.5,1.2-0.8,2.2-0.5
		s2.3,1,3.5,1.8c1.2,0.8,2.3,1.7,2.8,2.4c0.4,0.7,0.1,1.4-0.4,1.8c-0.4,0.3-0.8,0.5-1.4,0.5C130.5,161.1,130.3,161.1,130.1,161
		 M121.1,153.7c-0.8,0.7-1.2,1.7-0.3,2.8s3.2,2.5,5.3,3.9c2.1,1.4,4,3,5.5,3.5c1.5,0.5,2.7,0,3.3-0.8c0.7-0.8,0.8-2.1,0-3.4
		c-0.8-1.3-2.7-2.7-4.7-4c-2-1.3-4.1-2.5-5.7-2.9c-0.4-0.1-0.7-0.1-1.1-0.1C122.4,152.8,121.7,153.2,121.1,153.7 M164.8,195.1
		c-0.5,0.3-0.9,0.9-0.8,1.5c0.1,0.6,0.7,1.2,1.4,2.1c0.7,0.9,1.6,2.1,2.2,2.8c0.6,0.7,0.8,0.8,1.1,0.8c0.2,0,0.4-0.1,0.7-0.4
		s0.6-0.6,0.8-1.3c0.2-0.7,0.3-1.7,0-2.6c-0.3-0.9-1.1-1.8-1.8-2.3c-0.7-0.6-1.3-0.8-2-0.9c-0.1,0-0.3,0-0.4,0
		C165.6,194.7,165.1,194.8,164.8,195.1 M168.8,203.4c-0.3,0-0.5-0.2-1.7-1.4c-1.2-1.2-3.4-3.5-4.8-5.3c-1.4-1.8-1.9-3.2-2.2-4.7
		c-0.3-1.5-0.2-3.2,0.7-4.5c0.9-1.2,2.7-1.9,4.4-2c1.8-0.1,3.5,0.5,5,2c1.5,1.5,2.8,3.9,3.2,6.1c0.3,2.2-0.2,4.2-1,5.7
		c-0.8,1.6-1.8,2.7-2.4,3.3C169.4,203.2,169.1,203.4,168.8,203.4C168.8,203.4,168.8,203.4,168.8,203.4 M141.8,119
		c-0.7,0.1-1.6,0.9-3.4,2.4c-1.8,1.5-4.6,3.7-8.4,5.8c-3.8,2.1-8.6,4.2-12.5,6.1c-3.9,1.9-6.9,3.6-8.3,5.9c-1.4,2.3-1.3,5.4,0.3,7.1
		s4.7,2,7.3,2.1c2.6,0.1,4.8,0,6.9,0.7c2,0.7,3.9,2.4,6.3,4.3c2.4,1.9,5.3,4.1,7.7,4.7c2.4,0.5,4.3-0.7,6.4-1.7
		c2.1-1,4.3-1.9,7.4-1.9c3.1,0,7,1,10.9,3.1c3.9,2.1,7.8,5.2,9.8,7.2c2,2,2.3,2.7,2,3c-0.2,0.3-0.9,0.1-2.5-1.2
		c-1.6-1.3-4.2-3.8-7.6-5.7c-3.4-1.9-7.6-3.4-11.6-3.2c-4,0.1-7.8,1.8-10.2,4.6c-2.4,2.8-3.4,6.8-4.5,9.7c-1.1,2.8-2.3,4.5-3.9,5.1
		c-1.6,0.6-3.5,0.2-5.8-0.8c-2.3-1-5-2.5-7.2-3.7c-2.2-1.1-4-1.8-5.1-2.9s-1.6-2.6-1.7-4.7c-0.1-2.2,0.3-5,0.4-7.1
		c0.2-2.1,0.1-3.4-0.3-4.7c-0.5-1.2-1.4-2.3-1.9-2.9c-0.6-0.6-0.8-0.6-0.9-0.5c-0.1,0.1-0.1,0.5,0.1,1.3c0.2,0.8,0.5,2.2,0.4,4.8
		c-0.1,2.7-0.8,6.7-1.3,9.7c-0.5,3-0.9,5.1-0.2,6.7c0.7,1.6,2.5,2.7,5.9,4.5c3.3,1.8,8.2,4.4,12.6,7.1c4.4,2.7,8.5,5.6,13,9
		s9.2,7.5,12.5,10.3c3.2,2.8,4.9,4.4,6.2,4.9c1.3,0.5,2.2-0.1,2.5-1.2c0.4-1,0.2-2.4-0.1-3.6c-0.3-1.2-0.8-2.2-2-3.8
		c-1.2-1.6-3.3-3.8-5.6-5.8c-2.4-2-5.1-3.8-6.7-5.1c-1.6-1.3-2-1.9-1.8-2.1c0.2-0.2,1.2,0,2.5,0.9c1.3,0.9,3.1,2.3,5.1,3.8
		s4.1,3,6.1,4.8c2,1.9,3.7,4.2,4.8,5.9c1.2,1.7,1.8,2.7,2.4,3.1c0.7,0.4,1.4,0.2,2.3-0.4c0.9-0.6,2.1-1.5,3.5-2.9
		c1.5-1.4,3.3-3.3,4.6-5.3c1.3-2,2-4.1,2.5-6.4c0.5-2.3,0.7-4.7,2.1-7.1c1.4-2.4,4-4.8,8.3-8.5s10.3-8.9,15.7-13.8
		c5.4-4.9,10.1-9.7,14.1-15c4-5.3,7.2-11.1,8.9-14.5c1.6-3.3,1.7-4.1,1.2-4.4c-0.5-0.2-1.6,0.1-5.1,2.6c-3.4,2.5-9.2,7-15.7,11.9
		s-13.7,9.9-19.4,13c-5.7,3.1-9.9,4.3-12.9,4.7c-3,0.3-4.8-0.3-6-0.9c-1.2-0.6-1.8-1.3-1.9-2s0.2-1.4,1.1-2.3
		c0.9-0.9,2.3-1.9,3.7-3.3c1.4-1.3,2.8-2.9,3.9-4.6c1.1-1.7,1.8-3.4,2.2-4.9s0.3-2.8-0.3-3.1c-0.6-0.4-1.8,0.2-3.1,0.9
		c-1.3,0.7-2.8,1.6-4.9,2.5c-2.1,0.9-4.7,1.8-7.6,2c-2.9,0.1-6.2-0.4-9-2.6c-2.8-2.2-5.3-5.9-7.2-9.5c-1.9-3.6-3.3-7.2-4.3-9.3
		c-0.9-2-1.4-2.7-2-2.7C141.9,119,141.8,119,141.8,119 M85.3,60.7c-4.3,0.4-10.4,1.5-15,2.7c-4.6,1.2-7.6,2.5-9.5,3.5
		c-1.9,0.9-2.7,1.5-2.9,2.3c-0.2,0.8,0.2,1.8,1.3,3.6c1.1,1.8,2.9,4.4,4.4,8c1.6,3.6,3,8.1,3,13.7c0,5.6-1.2,12.4-2,16.3
		c-0.8,3.8-1.1,4.7-1.9,5.1c-0.8,0.4-2,0.4-4.4-0.2c-2.3-0.5-5.7-1.6-9.1-2.2c-3.4-0.6-6.8-0.8-9.3-0.3c-2.5,0.5-4.2,1.6-5.4,3.1
		c-1.2,1.5-1.9,3.4-2.3,6.2c-0.5,2.8-0.8,6.7-0.7,9.3c0,2.6,0.4,4.1,1.1,4.8s1.9,0.9,4.1,0.4c2.2-0.5,5.6-1.5,10.2-1.8
		c4.6-0.3,10.4,0.2,16.1,1.7s11.2,4.1,16.2,7.7c5,3.6,9.4,8.4,13,13.2c3.6,4.9,6.5,9.9,8.3,12.8c1.8,2.9,2.5,3.8,3.1,3.5
		c0.6-0.3,1-1.7,1.2-3.5c0.2-1.7,0.3-3.8-0.2-7c-0.4-3.3-1.4-7.7-2.6-11.3c-1.3-3.6-2.9-6.4-4.1-8.5c-1.2-2.1-2-3.4-2-4.2
		c0-0.9,0.7-1.2,4.2-2.6c3.5-1.4,9.8-3.8,16.3-6.7c6.4-2.9,12.9-6.3,17-9.2c4-2.8,5.6-5.1,6-7.8c0.4-2.7-0.3-5.9-1.3-8.9
		c-1-3-2.3-6-4.4-9.9c-2.1-4-5.1-8.9-8.4-13.3c-3.3-4.4-6.8-8.2-9.1-10.3c-2.3-2.1-3.5-2.6-4.2-2.4s-1.1,0.9-1.4,3.9
		s-0.6,8.1-1.2,12.9c-0.6,4.9-1.6,9.5-3.6,14.7c-2,5.2-5,11.1-8.2,16.5c-3.2,5.3-6.7,10.1-8.7,12.1c-2.1,2.1-2.8,1.5-4,0.5
		c-1.2-1-2.8-2.3-4-3.3c-1.2-1-2.1-1.8-2.3-2.4c-0.2-0.7,0.4-1.2,2.2-3.7s5.1-6.8,8-12.3s5.4-11.9,6.6-19c1.2-7.1,1.2-14.7,0.8-19.4
		c-0.4-4.7-1-6.4-2.5-7.4c-1.1-0.8-2.8-1.2-5.3-1.2C87.3,60.6,86.3,60.6,85.3,60.7"/>
</g>
<g id="Layer_6" class="st0">
	<path class="st9" d="M234.3,242H20.8c-3.4,0-6.1-2.8-6.1-6.1V22.3c0-3.4,2.8-6.1,6.1-6.1h213.5c3.4,0,6.1,2.8,6.1,6.1v213.5
		C240.5,239.2,237.7,242,234.3,242z"/>
	<path class="st1" d="M119.8,150.7c5.4-1.7,9.6-5.9,11-11.3c1.7-6.8,2.8-14.1,2.8-21.4c0-9.6-2-18.9-5.4-27.3
		c-9-0.6-18.6-0.8-28.4-0.8c-34.4,0-62,7.6-62,16.9c0,21.4,8.2,40.8,21.1,54.9c0.8,0.8,1.7,1.4,2.8,1.4c1.7,0,2.8-1.1,2.8-2.8v-2.8
		c0-1.7,1.1-2.8,2.8-2.8c2.8,0,5.4,1.1,7,2.8s4.2,2.8,7,2.8c6.2,0,12.4-0.8,18.3-2.8L119.8,150.7z"/>
	<path class="st1" d="M137.8,91.6c3,8.4,4.6,17,4.6,25.9c34.9,0,70.3,6.5,70.3,18.9c0,4.9-5.1,8.6-13.5,11.6
		c11.6-1.9,18.9-5.1,18.9-8.9v-21.6C218.1,105.4,184.3,95.1,137.8,91.6z"/>
	<path class="st1" d="M192.4,129.1c-16.2,3.5-32.7,5.4-50,5.4c-0.5,0-1.1,0-1.6,0c-0.3,1.9-0.8,3.8-1.4,5.7
		c-0.8,3.5-2.7,6.5-5.1,9.2c6.8,0.5,14.1,0.8,21.4,1.1c34.1-1.6,51.6-8.9,51.6-13.2C207.3,135,202.2,131.8,192.4,129.1z"/>
</g>
<g id="Layer_7" class="st0">
	<g class="st10">
		<path class="st11" d="M224,15.7c1.1,0.7,2.5,0.7,3.7,1.1c7.6,2.6,12.7,9.4,12.8,17.4c0.1,9.4,0,18.8,0,28.2c0,47.5,0,94.9,0,142.4
			c0,0.7,0,1.3,0,2.1c-0.8-0.2-1.2-0.8-1.6-1.2c-14.7-14.7-29.4-29.4-44.2-44.2c-6.3-6.3-6.9-13.5-1.7-20.8c6-8.4,12.1-16.6,18-25
			c5.8-8.3,8.8-17.7,8.6-27.9c-0.2-9.4-2.3-18.3-8-25.9c-5.7-7.5-13.5-11.9-22.4-14.4c-18.9-5.4-37.4-4.1-55.4,4
			c-5.8,2.6-10.8,6.2-15,11.1c-5,5.8-7.4,12.5-7.4,20.2c0,32,0,64,0,95.9c0,8.1-2.7,12.2-10.4,14.7c-7.8,2.5-15.7,2.6-23.3-0.8
			c-4.9-2.2-7.4-6.1-7.4-11.6c0-54.8,0-109.6,0-164.4c0-0.2,0-0.5,0-0.7C121.7,15.7,172.8,15.7,224,15.7z"/>
		<path class="st11" d="M39.3,15.7c0,0.8-0.1,1.6-0.1,2.4c0,54.3,0.2,108.6-0.1,162.9c-0.1,17.7,10.7,33.3,29.1,38.9
			c16.1,4.9,32.3,4.5,48.2-1.1c14.3-5.1,23.2-15.1,25.9-30.3c0.3-1.9,0.4-3.9,0.4-5.8c0-30.4,0-60.8,0-91.2c0-2.4,0-4.9,0.7-7.3
			c1.9-6.6,6.8-9.7,13.1-10.8c5.9-1.1,11.8-1.1,17.7,0.3c10.6,2.5,14.3,9.8,13.1,19.7c-0.9,7.6-4.8,13.7-9.5,19.4
			c-5.1,6.3-9.8,12.9-13.8,19.9c-9,16-7.6,31.1,3.4,45.6c2.6,3.4,5.6,6.6,8.6,9.7c17.1,17.1,34.2,34.2,51.3,51.3
			c0.4,0.4,0.8,0.9,1.5,1.6c-1,0-1.5,0-2.1,0c-63.8,0-127.6,0-191.5,0c-9.5,0-16.4-4.3-19.5-11.9c-0.5-1.3-0.5-2.7-1.4-3.8
			c0-63.6,0-127.2,0-190.8c0.3-0.8,0.3-1.5,0-2.3c0-0.4,0-0.8,0-1.1c0.4-2.5,0.8-5,2.2-7.2c3.1-4.7,7.7-7,13.1-7.8
			c1-0.2,2.1-0.1,3.1-0.4c1,0,2,0,3,0c0.9,0.3,1.8,0.3,2.6,0C38.8,15.7,39,15.7,39.3,15.7z"/>
		<path class="st12" d="M38.5,15.7c-0.9,0.6-1.8,0.6-2.6,0C36.8,15.7,37.6,15.7,38.5,15.7z"/>
		<path class="st13" d="M14.4,32.2c0.6,0.8,0.6,1.5,0,2.3C14.4,33.7,14.4,33,14.4,32.2z"/>
	</g>
</g>
<g id="Layer_8" class="st0">
	<path class="st14" d="M131.1,19.3c-3.5,0-6.9,0.9-10,2.6L39.4,67.8c-6.3,3.5-10.1,10.1-10.1,17.1v91.8c0,7,3.9,13.6,10.1,17.1
		l81.7,45.9c3.1,1.7,6.6,2.6,10,2.6c3.5,0,6.9-0.9,10-2.6l81.7-45.9c6.3-3.5,10.1-10.1,10.1-17.1V84.9c0-7-3.9-13.6-10.1-17.1
		l-81.7-45.9C138.1,20.2,134.6,19.3,131.1,19.3z M131.1,72.6c18.3,0,35.3,8.5,46.3,23l-21.3,12.3c-6.4-7-15.5-11-25-11
		c-18.7,0-33.9,15.2-33.9,33.9s15.2,33.9,33.9,33.9c9.6,0,18.6-4.1,25-11l21.3,12.3c-11,14.5-27.9,23-46.3,23
		c-32.1,0-58.2-26.1-58.2-58.2S99,72.6,131.1,72.6z M179.6,106.6h9.7v9.7h9.7v-9.7h9.7v9.7h9.7v9.7h-9.7v9.7h9.7v9.7h-9.7v9.7H199
		v-9.7h-9.7v9.7h-9.7v-9.7h-9.7v-9.7h9.7V126h-9.7v-9.7h9.7V106.6z M189.3,126v9.7h9.7V126H189.3z"/>
</g>
<g id="Layer_9" class="st0">
	<path class="st15" d="M240.4,129.7c0,62.3-50.5,112.9-112.8,112.9c-62.3,0-112.9-50.5-112.9-112.9c0-62.3,50.5-112.8,112.9-112.8
		C189.8,16.9,240.4,67.4,240.4,129.7L240.4,129.7z"/>
	<path class="st1" d="M170.6,170.1c-2.1,0-4.3-0.2-6.4-0.5c-17.9-2.6-29.9-15.4-36.7-25.3c-6.7,9.9-18.7,22.8-36.7,25.4
		c-2.1,0.3-4.3,0.5-6.4,0.5c-11.2,0-21.6-4.2-29.5-11.7c-8-7.6-12.3-17.8-12.3-28.7c0-10.9,4.4-21.1,12.3-28.7
		c7.9-7.5,18.3-11.7,29.5-11.7c2.1,0,4.3,0.2,6.4,0.5c17.9,2.6,29.9,15.4,36.7,25.3c6.7-9.9,18.7-22.8,36.7-25.3
		c2.1-0.3,4.3-0.5,6.4-0.5c11.2,0,21.6,4.1,29.5,11.7c8,7.6,12.3,17.8,12.3,28.7c0,10.9-4.4,21.1-12.3,28.7
		C192.2,165.9,181.8,170.1,170.6,170.1 M135.5,129.7c3.5,6.7,13.8,23.3,30.7,25.7c1.5,0.2,3,0.3,4.4,0.3c15.2,0,27.5-11.7,27.5-26.1
		c0-14.4-12.3-26.1-27.5-26.1c-1.5,0-2.9,0.1-4.4,0.3C149.3,106.4,139,123,135.5,129.7 M84.4,103.7c-15.2,0-27.5,11.7-27.5,26.1
		c0,14.4,12.3,26.1,27.5,26.1c1.5,0,2.9-0.1,4.4-0.3c16.9-2.4,27.2-19.1,30.7-25.7c-3.5-6.7-13.8-23.3-30.7-25.7
		C87.4,103.8,85.9,103.7,84.4,103.7"/>
	<path class="st1" d="M72.9,125.8H98v8.1H72.9V125.8z M181.9,125.8h-8.5v-8.5h-8.1v8.5h-8.5v8.1h8.5v8.5h8.1v-8.5h8.5V125.8z"/>
</g>
</svg>
